<svg xmlns="http://www.w3.org/2000/svg" width="226" height="149" viewBox="0 0 59.796 39.423"><path d="M32.801 7.268l-1.812.787v.892h4.631V7.268z" fill="#1c2024"/><path d="M35.903 5.816h.255v4.04h-.255z" fill="#c3c3c3"/><path d="M36.55 5.592h3.005v3.132H36.55z" fill="#fff"/><path d="M36.55 5.592h3.02v4.014h-3.02z" fill="#020101" fill-opacity=".16"/><path d="M36.546 6.33h3.022v1.498h-3.022z" fill="#020101" fill-opacity=".16"/><path d="M36.534 7.227h3.021v1.497h-3.02z" fill="#020101" fill-opacity=".16"/><path d="M36.55 8.108h3.02v1.498h-3.02z" fill="#020101" fill-opacity=".16"/><path d="M36.455 4.9l.214.128-.546.918-.214-.127z" fill="#c3c3c3"/><path d="M36.455 4.9h1.88v.193h-1.88z" fill="#c3c3c3"/><path d="M38.18 4.903h.225v.691h-.225z" fill="#c3c3c3"/><path d="M17.118 8.71H41.1v13.05H17.118z" fill="#1c2024"/><path d="M17.118 21.316H41.1v12.488H17.118z" fill="#1c2024"/><path d="M15.61 19.638l21.882-.1v2.783l-22.422-.084z" fill="#fcb500"/><path d="M28.465 27.082H41.1v6.723H28.465z" fill="#a6b9bf"/><path d="M33.238 33.804l7.848-4.574.014 4.574z" fill="#7e99a0" fill-opacity=".453"/><path d="M35.316 24.5h.843v9.298h-.843z" fill="#1c2024"/><path d="M17.693 23.175h9.842v3.41h-9.842z" fill="#dee5e7"/><path d="M18.031 23.547h9.076v2.646h-9.076z" fill="#3d4f55"/><text word-spacing="0" letter-spacing="0" font-size="2.114" font-weight="400" style="line-height:1.25" x="18.479" y="25.691" font-family="sans-serif" fill="#fff" stroke-width=".053"><tspan x="18.479" y="25.691">麵包屑屑</tspan></text><path d="M18.463 28.355h3.93v5.44h-3.93z" fill="#a6b9bf"/><path d="M18.903 13.693h4.647v4.209h-4.647z" fill="#99aeb5"/><path d="M24.771 13.693h4.646v4.209h-4.646zm10.584 0h4.646v4.209h-4.646zM22.393 28.355h3.932v5.44h-3.932z" fill="#dee5e7"/><path d="M16.275 33.804h25.778v.626h-25.78z" fill="#483737"/><path d="M12.856 30.16h2.915v4.269h-2.915z" fill="#6c5353"/><path d="M12.26 30.15h3.004v4.269H12.26z" fill="#1c2024"/><text word-spacing="0" letter-spacing="0" font-size="4.998" font-weight="400" style="line-height:0" x="12.771" y="32.072" font-family="sans-serif" fill="#fff" stroke-width=".125"><tspan font-size="1" x="12.771" y="32.072" style="line-height:0">即將</tspan> <tspan font-size="1" x="12.771" y="33.591" style="line-height:0">開幕</tspan></text><path d="M15.264 30.58l-3.004 2.227v1.611h3.004z" fill="#020101" fill-opacity=".16"/><path d="M36.268 19.852a1.35.993 0 0 0-.27.011 1.35.993 0 0 0-1.13 1.076 1.568.893 0 0 0-1.26 1.014 1.568.893 0 0 0 .258.368h3.626v-1.78a1.35.993 0 0 0-1.224-.69z" fill="#8d5416" fill-opacity=".433"/><path d="M21.048 19.613l-4.768.022a1.568.893 0 0 0-.036.368 1.568.893 0 0 0 1.786.746h.017a1.568.893 0 0 0 .51-.103.842.73 0 0 0 .862.367h.01a.842.73 0 0 0 .7-.642 1.263.912 0 0 0 .92-.757z" fill="#af8a3c" fill-opacity=".42"/><path d="M17.788 8.236a.77.73 0 0 0-.154.008.77.73 0 0 0-.64.833.77.73 0 0 0 .877.61l.008-.002a.77.73 0 0 0 .55-.368.609.418 0 0 0 .117-.004l.007-.001a.609.418 0 0 0 .503-.479.609.418 0 0 0-.697-.346.609.418 0 0 0-.02.003.77.73 0 0 0-.55-.254zM36.49 18.865a.586.432 0 0 0-.116.005.586.432 0 0 0-.468.3.496.298 0 0 0-.348.33.496.298 0 0 0 .565.25l.005-.001a.496.298 0 0 0 .174-.039.586.432 0 0 0 .251.013l.006-.001a.586.432 0 0 0 .105-.02.685.258 0 0 0 .56.062h.006a.685.258 0 0 0 .566-.296.685.258 0 0 0-.75-.215.586.432 0 0 0-.004-.026.586.432 0 0 0-.553-.363zm4.978 15.142a.586.432 0 0 0-.116.005.586.432 0 0 0-.468.3.496.298 0 0 0-.348.331.496.298 0 0 0 .565.249h.006a.496.298 0 0 0 .174-.039.586.432 0 0 0 .251.013h.006a.586.432 0 0 0 .105-.021.685.258 0 0 0 .56.063h.007a.685.258 0 0 0 .565-.296.685.258 0 0 0-.749-.215.586.432 0 0 0-.004-.026.586.432 0 0 0-.553-.363z" fill="#627a00"/><path d="M17.676 36.77c-.328.02-.636-.074-.687-.211-.05-.137.377-.445.705-.466.328-.022.673.293.726.43.053.137-.41.224-.737.246" fill="#a07e40"/><path d="M16.933 36.894c-.153.015-.295-.051-.318-.148-.024-.096.174-.312.325-.328.152-.015.312.206.336.303.024.097-.19.157-.34.173" fill="#816633"/><path d="M31.86 38.608c-.329.02-.636-.073-.687-.21-.05-.138.376-.445.704-.467.328-.022.674.293.726.43.053.138-.41.224-.737.246" fill="#a07e40"/><path d="M27.666 36.999c-.152.015-.294-.052-.317-.148-.024-.097.173-.313.325-.328.152-.015.311.206.336.303.024.096-.19.157-.34.173m13.615-.199c-.152.015-.294-.051-.317-.148-.024-.096.174-.312.325-.328.152-.015.311.207.336.303.024.097-.19.157-.34.173" fill="#816633"/><path d="M40.436 36.742c-.329.02-.636-.073-.687-.21-.05-.138.376-.445.705-.467.328-.022.673.293.726.43.053.138-.41.224-.738.246" fill="#a07e40"/><path d="M18.904 17.901l4.652-2.904-.006 2.904z" fill="#a6b9bf"/><path d="M24.771 13.692l1.493.017-1.486.88zm0 0v4.21h4.646v-4.21z" fill="#a6b9bf" fill-opacity=".34"/><path d="M24.771 17.901l4.652-2.904-.006 2.904z" fill="#5e7a83" fill-opacity=".133"/><path d="M35.354 17.901l4.652-2.904L40 17.901z" fill="#a6b9bf" fill-opacity=".26"/><path d="M18.463 33.795l7.848-4.575.014 4.575z" fill="#bbc9cd" fill-opacity=".453"/><path d="M15.07 22.237l22.423-1.697v1.781z" fill="#da9c00" fill-opacity=".413"/><path fill="#fff" d="M56.859 1.984v2.91h1.787v3.074h-7.683V6.594h-4.042V3.521h2.255V1.984zm-45.696 9.75v2.91h1.787v3.074H5.267v-1.374H1.225V13.27H3.48v-1.536z"/><path d="M42.673 17.718h4.606V29.23h-4.606z" opacity=".998" fill="#aad400"/><path d="M44.59 25.03h.842v9.296h-.843z" opacity=".998" fill="#1c2024"/></svg>